<svg xmlns="http://www.w3.org/2000/svg" width="192" height="192" viewBox="0 0 192 192">
  <defs>
    <linearGradient id="grad192" x1="0%" y1="0%" x2="100%" y2="100%">
      <stop offset="0%" style="stop-color:#00bfff;stop-opacity:1" />
      <stop offset="100%" style="stop-color:#0080ff;stop-opacity:1" />
    </linearGradient>
  </defs>
  <rect width="192" height="192" rx="32" fill="url(#grad192)"/>
  
  <!-- Neural network pattern -->
  <g stroke="rgba(255,255,255,0.7)" stroke-width="2" fill="none">
    <line x1="96" y1="96" x2="144" y2="64"/>
    <line x1="96" y1="96" x2="144" y2="128"/>
    <line x1="96" y1="96" x2="48" y2="64"/>
    <line x1="96" y1="96" x2="48" y2="128"/>
    <line x1="96" y1="96" x2="96" y2="48"/>
    <line x1="96" y1="96" x2="96" y2="144"/>
    <line x1="96" y1="96" x2="128" y2="96"/>
    <line x1="96" y1="96" x2="64" y2="96"/>
  </g>
  
  <!-- Nodes -->
  <circle cx="144" cy="64" r="6" fill="rgba(255,255,255,0.9)"/>
  <circle cx="144" cy="128" r="6" fill="rgba(255,255,255,0.9)"/>
  <circle cx="48" cy="64" r="6" fill="rgba(255,255,255,0.9)"/>
  <circle cx="48" cy="128" r="6" fill="rgba(255,255,255,0.9)"/>
  <circle cx="96" cy="48" r="6" fill="rgba(255,255,255,0.9)"/>
  <circle cx="96" cy="144" r="6" fill="rgba(255,255,255,0.9)"/>
  <circle cx="128" cy="96" r="6" fill="rgba(255,255,255,0.9)"/>
  <circle cx="64" cy="96" r="6" fill="rgba(255,255,255,0.9)"/>
  
  <!-- Center node -->
  <circle cx="96" cy="96" r="8" fill="white"/>
  
  <!-- P letter -->
  <text x="96" y="106" font-family="Arial, sans-serif" font-size="48" font-weight="bold" fill="#00bfff" text-anchor="middle">P</text>
</svg>